<svg width="50" height="50" viewBox="0 0 50 50" fill="none" xmlns="http://www.w3.org/2000/svg">
<path d="M16.2493 4.16669H33.7493C40.416 4.16669 45.8327 9.58335 45.8327 16.25V33.75C45.8327 36.9547 44.5596 40.0282 42.2936 42.2942C40.0275 44.5603 36.954 45.8334 33.7493 45.8334H16.2493C9.58268 45.8334 4.16602 40.4167 4.16602 33.75V16.25C4.16602 13.0453 5.43908 9.97188 7.70514 7.70581C9.97121 5.43975 13.0447 4.16669 16.2493 4.16669ZM15.8327 8.33335C13.8436 8.33335 11.9359 9.12353 10.5294 10.5301C9.12286 11.9366 8.33268 13.8442 8.33268 15.8334V34.1667C8.33268 38.3125 11.6868 41.6667 15.8327 41.6667H34.166C36.1551 41.6667 38.0628 40.8765 39.4693 39.47C40.8758 38.0635 41.666 36.1558 41.666 34.1667V15.8334C41.666 11.6875 38.3118 8.33335 34.166 8.33335H15.8327ZM35.9368 11.4584C36.6275 11.4584 37.2899 11.7327 37.7783 12.2211C38.2667 12.7095 38.541 13.3719 38.541 14.0625C38.541 14.7532 38.2667 15.4156 37.7783 15.9039C37.2899 16.3923 36.6275 16.6667 35.9368 16.6667C35.2462 16.6667 34.5838 16.3923 34.0954 15.9039C33.607 15.4156 33.3327 14.7532 33.3327 14.0625C33.3327 13.3719 33.607 12.7095 34.0954 12.2211C34.5838 11.7327 35.2462 11.4584 35.9368 11.4584ZM24.9993 14.5834C27.762 14.5834 30.4115 15.6808 32.365 17.6343C34.3185 19.5878 35.416 22.2373 35.416 25C35.416 27.7627 34.3185 30.4122 32.365 32.3657C30.4115 34.3192 27.762 35.4167 24.9993 35.4167C22.2367 35.4167 19.5872 34.3192 17.6337 32.3657C15.6801 30.4122 14.5827 27.7627 14.5827 25C14.5827 22.2373 15.6801 19.5878 17.6337 17.6343C19.5872 15.6808 22.2367 14.5834 24.9993 14.5834ZM24.9993 18.75C23.3417 18.75 21.752 19.4085 20.5799 20.5806C19.4078 21.7527 18.7493 23.3424 18.7493 25C18.7493 26.6576 19.4078 28.2473 20.5799 29.4194C21.752 30.5915 23.3417 31.25 24.9993 31.25C26.657 31.25 28.2467 30.5915 29.4188 29.4194C30.5909 28.2473 31.2493 26.6576 31.2493 25C31.2493 23.3424 30.5909 21.7527 29.4188 20.5806C28.2467 19.4085 26.657 18.75 24.9993 18.75Z" fill="#B3B3B3"/>
</svg>
