<svg width="50" height="50" viewBox="0 0 50 50" fill="none" xmlns="http://www.w3.org/2000/svg">
<path d="M10.1562 7.8125C8.29145 7.8125 6.50302 8.55329 5.18441 9.87191C3.86579 11.1905 3.125 12.9789 3.125 14.8438V35.1562C3.125 37.0211 3.86579 38.8095 5.18441 40.1281C6.50302 41.4467 8.29145 42.1875 10.1562 42.1875H39.8438C41.7086 42.1875 43.497 41.4467 44.8156 40.1281C46.1342 38.8095 46.875 37.0211 46.875 35.1562V14.8438C46.875 12.9789 46.1342 11.1905 44.8156 9.87191C43.497 8.55329 41.7086 7.8125 39.8438 7.8125H10.1562ZM43.75 16.2547L25 26.35L6.25 16.2547V14.8438C6.25 13.8077 6.66155 12.8142 7.39411 12.0816C8.12668 11.3491 9.12025 10.9375 10.1562 10.9375H39.8438C40.8798 10.9375 41.8733 11.3491 42.6059 12.0816C43.3385 12.8142 43.75 13.8077 43.75 14.8438V16.2547ZM6.25 19.8031L24.2594 29.5016C24.487 29.6241 24.7415 29.6882 25 29.6882C25.2585 29.6882 25.513 29.6241 25.7406 29.5016L43.75 19.8031V35.1562C43.75 36.1923 43.3385 37.1858 42.6059 37.9184C41.8733 38.6509 40.8798 39.0625 39.8438 39.0625H10.1562C9.12025 39.0625 8.12668 38.6509 7.39411 37.9184C6.66155 37.1858 6.25 36.1923 6.25 35.1562V19.8031Z" fill="#B3B3B3"/>
</svg>
