<svg width="53" height="53" viewBox="0 0 53 53" fill="none" xmlns="http://www.w3.org/2000/svg">
<g clip-path="url(#clip0_390_70)">
<path fill-rule="evenodd" clip-rule="evenodd" d="M4.94556 26.3804C4.94556 14.5422 14.5414 4.94629 26.3796 4.94629C38.2178 4.94629 47.8137 14.5422 47.8137 26.3804C47.8137 38.2186 38.2178 47.8144 26.3796 47.8144C14.5414 47.8144 4.94556 38.2186 4.94556 26.3804ZM26.3796 0.549561C12.1133 0.549561 0.548828 12.1141 0.548828 26.3804C0.548828 40.6467 12.1133 52.2112 26.3796 52.2112C40.6459 52.2112 52.2104 40.6478 52.2104 26.3804C52.2104 12.113 40.647 0.549561 26.3796 0.549561ZM28.1416 15.7216C23.3272 15.2753 18.2094 15.9568 13.672 17.9683C13.408 18.0854 13.1697 18.2533 12.9707 18.4624C12.7716 18.6716 12.6157 18.9179 12.5119 19.1873C12.408 19.4567 12.3583 19.744 12.3654 20.0326C12.3726 20.3213 12.4365 20.6057 12.5536 20.8696C12.6706 21.1335 12.8385 21.3718 13.0477 21.5709C13.2568 21.7699 13.5032 21.9258 13.7726 22.0297C14.042 22.1336 14.3292 22.1833 14.6179 22.1762C14.9065 22.169 15.1909 22.1051 15.4549 21.988C19.2294 20.314 23.5822 19.7149 27.736 20.0996C31.9151 20.4865 35.9436 21.8759 39.0038 24.2304C39.4658 24.586 40.0502 24.7436 40.6284 24.6683C41.2067 24.5931 41.7313 24.2912 42.087 23.8292C42.4426 23.3671 42.6002 22.7827 42.5249 22.2045C42.4497 21.6263 42.1478 21.1016 41.6858 20.746C37.8386 17.7859 32.9714 16.169 28.1416 15.7216ZM15.0438 25.3625C18.7865 23.5895 23.0403 22.9883 27.0271 23.3642C30.9259 23.7313 34.8697 25.0657 37.9903 27.5257C38.4384 27.8899 38.7252 28.4157 38.7888 28.9895C38.8524 29.5634 38.6877 30.1392 38.3303 30.5927C37.9728 31.0461 37.4514 31.3407 36.8785 31.4129C36.3057 31.485 35.7274 31.3289 35.2687 30.9782C32.9385 29.1426 29.8454 28.0456 26.6138 27.7412C23.3206 27.4301 19.8725 27.9412 16.9256 29.3361C16.6643 29.4621 16.3808 29.5352 16.0912 29.5511C15.8016 29.5671 15.5117 29.5255 15.2382 29.429C14.9648 29.3324 14.7131 29.1826 14.4978 28.9884C14.2824 28.7941 14.1076 28.5591 13.9835 28.297C13.8594 28.0349 13.7883 27.7508 13.7745 27.4611C13.7606 27.1714 13.8042 26.8818 13.9028 26.6091C14.0013 26.3363 14.1529 26.0857 14.3487 25.8718C14.5445 25.6578 14.7808 25.4848 15.0438 25.3625ZM25.9147 31.0695C22.9689 30.7826 19.8252 31.2223 17.03 32.5347C16.7633 32.6539 16.523 32.8251 16.3232 33.0382C16.1234 33.2514 15.9681 33.5022 15.8663 33.7761C15.7646 34.05 15.7184 34.3414 15.7306 34.6333C15.7428 34.9252 15.813 35.2117 15.9372 35.4762C16.0614 35.7406 16.237 35.9777 16.4539 36.1734C16.6707 36.3692 16.9244 36.5198 17.2002 36.6164C17.4759 36.713 17.7681 36.7537 18.0597 36.7361C18.3513 36.7184 18.6365 36.6429 18.8986 36.5137C20.9046 35.5728 23.2448 35.2277 25.4882 35.4453C27.7514 35.6652 29.8926 36.4566 31.4886 37.7558C31.9408 38.124 32.5207 38.2975 33.1008 38.2381C33.6808 38.1788 34.2135 37.8914 34.5817 37.4392C34.9499 36.9871 35.1234 36.4072 35.0641 35.8271C35.0047 35.2471 34.7173 34.7143 34.2652 34.3461C31.8788 32.4028 28.8704 31.3564 25.9147 31.0695Z" fill="#50749F"/>
</g>
<defs>
<clipPath id="clip0_390_70">
<rect width="52.7608" height="52.7608" fill="white"/>
</clipPath>
</defs>
</svg>
