<svg width="48" height="48" viewBox="0 0 48 48" fill="none" xmlns="http://www.w3.org/2000/svg">
<g clip-path="url(#clip0_319_884)">
<path fill-rule="evenodd" clip-rule="evenodd" d="M4.5 24C4.5 13.23 13.23 4.5 24 4.5C34.77 4.5 43.5 13.23 43.5 24C43.5 34.77 34.77 43.5 24 43.5C13.23 43.5 4.5 34.77 4.5 24ZM24 0.5C11.021 0.5 0.5 11.021 0.5 24C0.5 36.979 11.021 47.5 24 47.5C36.979 47.5 47.5 36.98 47.5 24C47.5 11.02 36.98 0.5 24 0.5ZM25.603 14.303C21.223 13.897 16.567 14.517 12.439 16.347C12.1989 16.4535 11.9821 16.6063 11.801 16.7965C11.6199 16.9868 11.4781 17.2109 11.3836 17.456C11.2891 17.7011 11.2438 17.9624 11.2503 18.225C11.2568 18.4876 11.315 18.7464 11.4215 18.9865C11.528 19.2266 11.6808 19.4434 11.871 19.6245C12.0613 19.8056 12.2854 19.9474 12.5305 20.0419C12.7756 20.1364 13.0369 20.1817 13.2995 20.1752C13.5621 20.1687 13.8209 20.1105 14.061 20.004C17.495 18.481 21.455 17.936 25.234 18.286C29.036 18.638 32.701 19.902 35.485 22.044C35.9054 22.3676 36.437 22.5109 36.9631 22.4424C37.4891 22.374 37.9664 22.0994 38.29 21.679C38.6136 21.2586 38.7569 20.7269 38.6884 20.2009C38.62 19.6749 38.3454 19.1976 37.925 18.874C34.425 16.181 29.997 14.71 25.603 14.303ZM13.687 23.074C17.092 21.461 20.962 20.914 24.589 21.256C28.136 21.59 31.724 22.804 34.563 25.042C34.9706 25.3733 35.2316 25.8516 35.2894 26.3737C35.3473 26.8958 35.1975 27.4197 34.8723 27.8322C34.5471 28.2447 34.0727 28.5128 33.5515 28.5784C33.0304 28.644 32.5043 28.502 32.087 28.183C29.967 26.513 27.153 25.515 24.213 25.238C21.217 24.955 18.08 25.42 15.399 26.689C15.1614 26.8036 14.9034 26.8701 14.6399 26.8846C14.3765 26.8991 14.1127 26.8614 13.8639 26.7735C13.6151 26.6856 13.3862 26.5494 13.1903 26.3727C12.9944 26.1959 12.8354 25.9822 12.7224 25.7437C12.6095 25.5052 12.5449 25.2468 12.5323 24.9832C12.5197 24.7197 12.5593 24.4562 12.649 24.2081C12.7386 23.9599 12.8765 23.7319 13.0547 23.5373C13.2328 23.3427 13.4477 23.1852 13.687 23.074ZM23.577 28.266C20.897 28.005 18.037 28.405 15.494 29.599C15.2513 29.7075 15.0327 29.8632 14.851 30.0571C14.6692 30.251 14.5279 30.4792 14.4353 30.7284C14.3428 30.9775 14.3008 31.2427 14.3119 31.5082C14.3229 31.7738 14.3868 32.0345 14.4998 32.2751C14.6128 32.5156 14.7726 32.7313 14.9699 32.9094C15.1672 33.0875 15.398 33.2245 15.6488 33.3124C15.8997 33.4003 16.1655 33.4373 16.4308 33.4213C16.6961 33.4052 16.9556 33.3365 17.194 33.219C19.019 32.363 21.148 32.049 23.189 32.247C25.248 32.447 27.196 33.167 28.648 34.349C29.0593 34.684 29.5869 34.8418 30.1146 34.7878C30.6424 34.7338 31.127 34.4724 31.462 34.061C31.797 33.6496 31.9548 33.1221 31.9008 32.5943C31.8468 32.0666 31.5853 31.582 31.174 31.247C29.003 29.479 26.266 28.527 23.577 28.266Z" fill="#B3B3B3"/>
</g>
<defs>
<clipPath id="clip0_319_884">
<rect width="48" height="48" fill="#B3B3B3"/>
</clipPath>
</defs>
</svg>
