<svg width="50" height="50" viewBox="0 0 50 50" fill="none" xmlns="http://www.w3.org/2000/svg">
<path d="M42.8903 15.0516C42.7241 14.3997 42.2516 13.9075 41.7113 13.7566C40.7531 13.4875 36.0959 12.875 26.2522 12.875C16.4084 12.875 11.7534 13.4875 10.7888 13.7566C10.255 13.9053 9.7825 14.3975 9.61406 15.0516C9.37563 15.9791 8.75219 19.8641 8.75219 26C8.75219 32.1359 9.37563 36.0188 9.61406 36.9506C9.78031 37.6003 10.2528 38.0925 10.7909 38.2413C11.7534 38.5125 16.4062 39.125 26.25 39.125C36.0938 39.125 40.7509 38.5125 41.7134 38.2434C42.2472 38.0947 42.7197 37.6025 42.8881 36.9484C43.1288 36.0209 43.75 32.125 43.75 26C43.75 19.875 43.1287 15.9812 42.8903 15.0516ZM47.1253 13.9644C48.125 17.8625 48.125 26 48.125 26C48.125 26 48.125 34.1375 47.1253 38.0356C46.5697 40.1903 44.9444 41.8856 42.8859 42.4588C39.1497 43.5 26.25 43.5 26.25 43.5C26.25 43.5 13.3591 43.5 9.61406 42.4588C7.54688 41.8769 5.92375 40.1838 5.37469 38.0356C4.375 34.1375 4.375 26 4.375 26C4.375 26 4.375 17.8625 5.37469 13.9644C5.93031 11.8097 7.55562 10.1144 9.61406 9.54125C13.3612 8.5 26.2522 8.5 26.2522 8.5C26.2522 8.5 39.1497 8.5 42.8881 9.54125C44.9531 10.1231 46.5784 11.8163 47.1275 13.9644M21.8772 33.6562V18.3438L35.0022 26L21.8772 33.6562Z" fill="#B3B3B3"/>
</svg>
