<svg width="55" height="55" viewBox="0 0 55 55" fill="none" xmlns="http://www.w3.org/2000/svg">
<path d="M47.144 15.9658C46.9612 15.2492 46.4419 14.7082 45.848 14.5423C44.7948 14.2466 39.6757 13.5733 28.8556 13.5733C18.0355 13.5733 12.9188 14.2466 11.8585 14.5423C11.2718 14.7058 10.7524 15.2468 10.5673 15.9658C10.3052 16.9853 9.61992 21.2556 9.61992 28.0001C9.61992 34.7446 10.3052 39.0126 10.5673 40.0369C10.75 40.751 11.2694 41.292 11.8609 41.4555C12.9188 41.7536 18.0331 42.4269 28.8532 42.4269C39.6733 42.4269 44.7924 41.7536 45.8504 41.4579C46.4371 41.2944 46.9564 40.7534 47.1416 40.0344C47.4061 39.015 48.0889 34.7326 48.0889 28.0001C48.0889 21.2676 47.4061 16.9877 47.144 15.9658ZM51.799 14.7708C52.8979 19.0555 52.8979 28.0001 52.8979 28.0001C52.8979 28.0001 52.8979 36.9447 51.799 41.2295C51.1883 43.5979 49.4018 45.4613 47.1392 46.0913C43.0323 47.2358 28.8532 47.2358 28.8532 47.2358C28.8532 47.2358 14.6837 47.2358 10.5673 46.0913C8.29507 45.4517 6.51095 43.5907 5.90743 41.2295C4.80859 36.9447 4.80859 28.0001 4.80859 28.0001C4.80859 28.0001 4.80859 19.0555 5.90743 14.7708C6.51817 12.4024 8.30468 10.5389 10.5673 9.90893C14.6861 8.7644 28.8556 8.7644 28.8556 8.7644C28.8556 8.7644 43.0323 8.7644 47.1416 9.90893C49.4114 10.5485 51.1979 12.4096 51.8014 14.7708M24.0467 36.4157V19.5845L38.4735 28.0001L24.0467 36.4157Z" fill="#50749F"/>
</svg>
